<svg width="24" height="24" viewBox="0 0 24 24" fill="none" xmlns="http://www.w3.org/2000/svg">
    <path d="M12 24C18.6274 24 24 18.6274 24 12C24 5.37258 18.6274 0 12 0C5.37258 0 0 5.37258 0 12C0 18.6274 5.37258 24 12 24Z" fill="#213147"/>
    <path d="M16.0614 14.3621L12.3789 20.1115C12.2544 20.3169 11.9619 20.3169 11.8374 20.1115L8.15492 14.3621C8.03648 14.1684 8.17648 13.9219 8.40335 13.9219H15.8129C16.0398 13.9219 16.1798 14.1684 16.0614 14.3621Z" fill="#28A0F0"/>
    <path d="M16.0614 13.4129L12.3789 7.66357C12.2544 7.45815 11.9619 7.45815 11.8374 7.66357L8.15492 13.4129C8.03648 13.6066 8.17648 13.8532 8.40335 13.8532H15.8129C16.0398 13.8532 16.1798 13.6066 16.0614 13.4129Z" fill="#28A0F0"/>
    <path d="M12.3789 3.88867C12.2544 3.68325 11.9619 3.68325 11.8374 3.88867L8.15492 9.63804C8.03648 9.83171 8.17648 10.0783 8.40335 10.0783H15.8129C16.0398 10.0783 16.1798 9.83171 16.0614 9.63804L12.3789 3.88867Z" fill="#28A0F0"/>
</svg> 