<svg width="24" height="24" viewBox="0 0 24 24" fill="none" xmlns="http://www.w3.org/2000/svg">
    <path d="M12 24C18.6274 24 24 18.6274 24 12C24 5.37258 18.6274 0 12 0C5.37258 0 0 5.37258 0 12C0 18.6274 5.37258 24 12 24Z" fill="#0052FF"/>
    <path d="M12.0002 4.45435C7.81932 4.45435 4.4541 7.81957 4.4541 12.0005C4.4541 16.1813 7.81932 19.5465 12.0002 19.5465C16.1811 19.5465 19.5463 16.1813 19.5463 12.0005C19.5463 7.81957 16.1811 4.45435 12.0002 4.45435ZM8.66909 14.8285V9.17235H10.2033V14.8285H8.66909ZM13.7969 14.8285V9.17235H15.3311V14.8285H13.7969Z" fill="white"/>
</svg> 