<?xml version="1.0" encoding="UTF-8"?>
<svg width="24" height="24" viewBox="0 0 24 24" fill="none" xmlns="http://www.w3.org/2000/svg">
    <path d="M12 24C18.6274 24 24 18.6274 24 12C24 5.37258 18.6274 0 12 0C5.37258 0 0 5.37258 0 12C0 18.6274 5.37258 24 12 24Z" fill="#00EF8B"/>
    <path d="M17.2031 7.89474H13.7115C13.4005 7.89474 13.1579 8.13734 13.1579 8.44833V11.3123C13.1579 11.6233 13.4005 11.8659 13.7115 11.8659H17.2031C17.5141 11.8659 17.7567 11.6233 17.7567 11.3123V8.44833C17.7567 8.13734 17.5141 7.89474 17.2031 7.89474Z" fill="white"/>
    <path d="M11.4978 12.1341H8.00624C7.69525 12.1341 7.45264 12.3767 7.45264 12.6877V15.5517C7.45264 15.8627 7.69525 16.1053 8.00624 16.1053H11.4978C11.8088 16.1053 12.0514 15.8627 12.0514 15.5517V12.6877C12.0514 12.3767 11.8088 12.1341 11.4978 12.1341Z" fill="white"/>
    <path d="M8.00624 7.89474H6.34662C6.03563 7.89474 5.79303 8.13734 5.79303 8.44833V11.3123C5.79303 11.6233 6.03563 11.8659 6.34662 11.8659H8.00624C8.31723 11.8659 8.55984 11.6233 8.55984 11.3123V8.44833C8.55984 8.13734 8.31723 7.89474 8.00624 7.89474Z" fill="white"/>
    <path d="M17.2031 12.1341H15.5435C15.2325 12.1341 14.9899 12.3767 14.9899 12.6877V15.5517C14.9899 15.8627 15.2325 16.1053 15.5435 16.1053H17.2031C17.5141 16.1053 17.7567 15.8627 17.7567 15.5517V12.6877C17.7567 12.3767 17.5141 12.1341 17.2031 12.1341Z" fill="white"/>
</svg>
