<svg width="24" height="24" viewBox="0 0 24 24" fill="none" xmlns="http://www.w3.org/2000/svg">
    <path d="M12 24C18.6274 24 24 18.6274 24 12C24 5.37258 18.6274 0 12 0C5.37258 0 0 5.37258 0 12C0 18.6274 5.37258 24 12 24Z" fill="#000000"/>
    <path d="M17.7071 8.70711C18.0976 8.31658 18.0976 7.68342 17.7071 7.29289C17.3166 6.90237 16.6834 6.90237 16.2929 7.29289L12 11.5858L7.70711 7.29289C7.31658 6.90237 6.68342 6.90237 6.29289 7.29289C5.90237 7.68342 5.90237 8.31658 6.29289 8.70711L10.5858 13L6.29289 17.2929C5.90237 17.6834 5.90237 18.3166 6.29289 18.7071C6.68342 19.0976 7.31658 19.0976 7.70711 18.7071L12 14.4142L16.2929 18.7071C16.6834 19.0976 17.3166 19.0976 17.7071 18.7071C18.0976 18.3166 18.0976 17.6834 17.7071 17.2929L13.4142 13L17.7071 8.70711Z" fill="#00EBA4"/>
</svg> 